<?xml version="1.0" encoding="UTF-8"?>
<svg xmlns="http://www.w3.org/2000/svg" width="900" height="220" viewBox="0 0 900 220">
  <rect width="100%" height="100%" fill="white"/>
  <!-- Cake icon -->
  <g transform="translate(20,20)">
    <line x1="70" y1="10" x2="70" y2="35" stroke="#ff5b8a" stroke-width="4"/>
    <path d="M60,0 C45,0 40,18 55,25 C60,30 70,38 70,38 C70,38 80,30 85,25 C100,18 95,0 80,0 C75,0 72,5 70,8 C68,5 65,0 60,0Z" fill="#ff4f86"/>
    <rect x="35" y="35" width="70" height="40" rx="6" fill="#ffd7e5"/>
    <path d="M35 45 q8 10 16 0 q8 10 16 0 q8 10 16 0 q8 10 16 0 q8 10 16 0"
          fill="none" stroke="#ff5b8a" stroke-width="8" stroke-linecap="round"/>
    <rect x="15" y="80" width="110" height="55" rx="8" fill="#ffd7e5"/>
    <path d="M15 92 q11 12 22 0 q11 12 22 0 q11 12 22 0 q11 12 22 0 q11 12 22 0"
          fill="none" stroke="#ff3f7a" stroke-width="10" stroke-linecap="round"/>
    <rect x="0" y="135" width="140" height="16" rx="8" fill="#ff4f86"/>
    <rect x="66" y="151" width="8" height="24" fill="#ff4f86"/>
    <ellipse cx="70" cy="182" rx="38" ry="8" fill="#ff4f86"/>
  </g>

  <text x="190" y="140"
        font-size="96"
        font-family="Brush Script MT, Pacifico, Comic Sans MS, cursive"
        font-style="italic"
        fill="#ff4f86">Cake</text>

  <text x="435" y="140"
        font-size="96"
        font-family="Brush Script MT, Pacifico, Comic Sans MS, cursive"
        font-style="italic"
        fill="#2f2f2f">Studio</text>
</svg>
